<?xml version="1.0" encoding="UTF-8"?>
<svg xmlns="http://www.w3.org/2000/svg" xmlns:xlink="http://www.w3.org/1999/xlink" width="24pt" height="24pt" viewBox="0 0 24 24" version="1.1">
<g id="surface1">
<path style=" stroke:none;fill-rule:nonzero;fill:#FFFFFF;fill-opacity:1;" d="M 12 2 C 6.476563 2 2 6.476563 2 12 C 2 17.523438 6.476563 22 12 22 C 17.523438 22 22 17.523438 22 12 C 22 6.476563 17.523438 2 12 2 Z M 12 4 C 16.410156 4 20 7.589844 20 12 C 20 16.410156 16.410156 20 12 20 C 7.589844 20 4 16.410156 4 12 C 4 7.589844 7.589844 4 12 4 Z M 10 7.5 L 10 16.5 L 16 12 Z "/>
</g>
</svg>
