<?xml version="1.0" encoding="UTF-8"?>
<svg xmlns="http://www.w3.org/2000/svg" xmlns:xlink="http://www.w3.org/1999/xlink" width="26pt" height="26pt" viewBox="0 0 26 26" version="1.1">
<g id="surface1">
<path style=" stroke:none;fill-rule:nonzero;fill:#FFFFFF;fill-opacity:1;" d="M 2.675781 10.855469 L 15.757813 9.871094 L 15.757813 6.769531 C 15.757813 6.449219 15.914063 6.207031 16.230469 5.964844 C 16.546875 5.882813 16.863281 5.882813 17.097656 6.042969 C 20.328125 8.304688 23.402344 12.09375 23.480469 12.257813 C 23.554688 12.410156 23.628906 12.640625 23.632813 12.804688 C 23.632813 12.808594 23.636719 12.816406 23.636719 12.820313 C 23.636719 12.980469 23.558594 13.222656 23.480469 13.304688 C 23.402344 13.464844 20.40625 17.265625 17.097656 19.527344 C 16.78125 19.6875 16.464844 19.769531 16.230469 19.609375 C 15.914063 19.445313 15.757813 19.203125 15.757813 18.882813 L 15.757813 15.78125 L 2.675781 14.796875 C 2.285156 14.480469 1.96875 13.6875 1.96875 12.820313 C 1.96875 12.035156 2.203125 11.171875 2.675781 10.855469 Z "/>
</g>
</svg>
